# xmcd
#
# Track frame offsets:
#	150
#	10970
#	23520
#	36242
#	50647
#	66495
#	77490
#	91567
#	113285
#	125662
#	136162
#	150037
#	162147
#	172742
#	182442
#	193937
#	205380
#	217192
#	232367
#	244395
#
# Disc length: 3492
#
# Revision: 3
# Processed by: cddbd v1.5.1PL0 Copyright (c) Steve Scherf et al.
# Submitted via: inCDius 2.0b9
# Normalized: r2:DSETVAR1
#
DISCID=060da214
DTITLE=Various Artist - Classics From The Roadhouse - Disc Two
DYEAR=1996
DGENRE=blues
TTITLE0=Little Junior's Blue Flames - Mystery Train
TTITLE1=Professor Longhair - Go To The Mardi Gras
TTITLE2=Big Mama Thornton - Hound Dog
TTITLE3=Little Richard - Shake A Hand
TTITLE4=Willie Cobbs - New Slow Down Baby
TTITLE5=Billy "The Kid" Emerson - Red Hot
TTITLE6=C.J. Chenier - My Baby Don't Wear No Shoes
TTITLE7=R.L. Burnside - Shake 'Em On Down
TTITLE8=Homesick James - Crossroads
TTITLE9=Young Jessie - Pretty Soon
TTITLE10=Albert King - Killing Floor
TTITLE11=Howlin' Wolf - Moaning At Midnight
TTITLE12=Jimmy Reed - Baby What You Want Me To Do
TTITLE13=Hound Dog Taylor - (Five) Take Five
TTITLE14=Sonny Boy Williamson - Too CloseTogether
TTITLE15=John Lee Hooker - Boom Boom
TTITLE16=Otis Rush - All Your Love (I Miss Loving)
TTITLE17=Larry Dale - Let The Doorbell Ring
TTITLE18=Junior Wells - It Hurts Me Too
TTITLE19=Buckwheat Zydeco - Zydeco Boogaloo
EXTD=
EXTT0=
EXTT1=
EXTT2=
EXTT3=
EXTT4=
EXTT5=
EXTT6=
EXTT7=
EXTT8=
EXTT9=
EXTT10=
EXTT11=
EXTT12=
EXTT13=
EXTT14=
EXTT15=
EXTT16=
EXTT17=
EXTT18=
EXTT19=
PLAYORDER=
